<svg width="50" height="50" viewBox="0 0 50 50" fill="none" xmlns="http://www.w3.org/2000/svg"><script xmlns=""></script>
    <path d="M15.7107 33.2867V19.8044H12.594V16.3494H20.0115V33.2867H15.7107Z" fill="white"></path>
    <path d="M36.1748 20.7226C36.1748 22.1965 35.3776 23.5011 34.0486 24.2261C35.9088 24.9991 37.0688 26.618 37.0688 28.5025C37.0688 31.5467 34.3626 33.4797 30.1346 33.4797C25.9061 33.4797 23.2002 31.571 23.2002 28.5752C23.2002 26.6422 24.4565 24.9991 26.4136 24.2261C24.9881 23.4287 24.07 22.0758 24.07 20.602C24.07 17.8957 26.4378 16.1804 30.1103 16.1804C33.8311 16.1804 36.1748 17.9442 36.1748 20.7226ZM27.2593 28.1402C27.2593 29.566 28.2741 30.3632 30.1346 30.3632C31.9948 30.3632 33.0338 29.5902 33.0338 28.1402C33.0338 26.7392 31.9948 25.9415 30.1346 25.9415C28.2741 25.9415 27.2593 26.739 27.2593 28.1402ZM27.6943 20.9643C27.6943 22.1726 28.5641 22.8488 30.1346 22.8488C31.7048 22.8488 32.5748 22.1724 32.5748 20.9643C32.5748 19.7082 31.7048 19.0074 30.1346 19.0074C28.5638 19.0074 27.6943 19.7082 27.6943 20.9643Z" fill="white"></path>
    <path d="M44.2238 18.2613C44.9388 20.3716 45.3015 22.5788 45.3015 24.83C45.3015 36.118 36.118 45.3015 24.8299 45.3015C13.5418 45.3015 4.35815 36.118 4.35815 24.83C4.35815 13.5418 13.5416 4.3586 24.8297 4.3586C27.0812 4.3586 29.2885 4.72103 31.3985 5.43633V0.88066C29.2672 0.296422 27.066 0 24.8299 0C11.1387 0 0 11.1387 0 24.83C0 38.5212 11.1387 49.66 24.8299 49.66C38.521 49.66 49.6595 38.5212 49.6595 24.83C49.6595 22.5941 49.3633 20.3928 48.779 18.2613H44.2238Z" fill="white"></path>
    <path d="M42.9866 6.66094V1.8999H39.5628V6.66094H34.8303V10.0842H39.5628V14.8451H42.9866V10.0842H47.7471V6.66094H42.9866Z" fill="white"></path>
</svg>