<svg xmlns="http://www.w3.org/2000/svg" viewBox="0 0 1020.5 132.4"><script xmlns=""/><defs/><style>.st0{fill:#fff}</style><path d="M1 43.1h29.4c13.1 0 17.8.4 21.7 1.9a20 20 0 0111.6 18.6c0 7.7-2.3 11.6-10.1 15.5A18.5 18.5 0 0166.4 98c0 12.8-10.1 21.3-24.7 21.3H1v-12.4h5.8V55.4H1V43.1zm21.7 12.3V74h15.1a10 10 0 0010.8-8.9v-.8c0-5-5-8.9-12-8.9H22.7zm0 30.6v20.9h16.2a11 11 0 0012-10.1v-.4c0-6.6-5.4-10.8-13.5-10.8l-14.7.4zM130.6 100.3c-2.7 12.8-13.1 20.5-27.1 20.5-16.2 0-28.2-12.8-28.2-30.5s12-30.5 28.2-30.5c8.9 0 17.4 4.3 22.4 12a38.5 38.5 0 015.8 21.7H90c1.5 15.1 11.2 15.9 13.9 15.9 5.4.4 10.4-3.5 12-8.5l14.7-.6zm-14.7-17c0-6.6-5.4-11.6-11.6-11.6h-.4c-6.6 0-12 5-13.1 11.2l25.1.4zM178.9 81.3h26.7v37.9h-8.5v-12a26.8 26.8 0 01-23.2 13.9c-17.8 0-31.7-17.4-31.7-39.8s13.9-40.2 31.3-40.2c9.7-.4 18.2 5 22.8 13.1v-12h8.1v24.4h-8.5c-.8-3.5-2.3-6.6-4.3-9.3-3.9-5-10.1-8.1-16.2-8.5-9.3 0-23.2 8.1-23.2 31.7 0 18.6 10.1 32.1 23.2 32.1a22.4 22.4 0 0020.9-18.2c.4-1.9.4-4.3.4-6.2h-18.2l.4-6.9zM270.6 119.6H254v-10.4a22.3 22.3 0 01-19.7 11.6 18 18 0 01-18.9-16.6V103c0-11.2 9.7-16.6 32.9-18.9l5.4-.4v-5.8c0-6.6-5-10.8-13.1-10.8s-12.4 2.7-13.9 10.4h-8.9c.8-4.6 3.1-8.9 6.6-12 4.3-3.5 10.1-5 15.5-5 12 0 22 5.4 22 20.1v32.1h8.1l.6 6.9zm-16.7-30.1l-5.4.8c-17.8 2.3-23.6 5.4-23.6 12.8.4 6.6 5.8 11.2 12 11.2 8.5-.4 15.9-6.6 17-15.1v-9.7zM294.9 72.1c2.7-3.9 7.7-12 18.6-12 7.7 0 12 3.9 13.5 12 1.5-2.7 3.1-5 5.4-7.3 3.5-3.1 7.7-5 12.4-5 8.9 0 13.9 5.8 13.9 15.9v36.7h8.1v7h-16.2V78.6c0-8.1-2.7-12-8.5-12-10.1 0-15.5 12-15.5 16.2v29.4h8.5v7h-17V77.5c0-7.3-2.7-10.4-8.5-10.4-8.9 0-15.5 11.2-15.5 16.6v29h8.5v7h-25.1v-7h8.5V67.8h-8.5v-7h17l.4 11.3zM375.7 39.6H392v33.6c2.3-4.3 8.9-12.8 18.9-12.8 13.1 0 23.2 13.5 23.2 30.5 0 15.9-10.8 29.4-23.2 29.4-10.4 0-15.5-7-18.9-11.6v10.8h-16.6v-7h8.1v-66h-7.7v-6.9h-.1zM392 94.9c0 9.7 7.3 17.4 16.6 18.2 10.1 0 16.2-8.9 16.2-23.2S418.3 67 408.6 67c-8.5 0-17 9.3-17 17.8l.4 10.1zM439.1 39.6h16.6v73.1h7.7v7h-24.7v-7h8.5V46.1h-8.1v-6.5zM520.3 103.4a20 20 0 01-4.6 8.9 24 24 0 01-18.6 8.5c-15.9 0-27.1-12.4-27.1-30.2 0-17 11.2-30.2 25.5-30.2s25.9 11.2 25.9 31.7h-42.1c.8 8.5 2.7 13.5 6.6 17.4 3.1 2.7 7 4.3 10.8 4.3 6.6 0 10.8-3.1 13.9-10.1l9.7-.3zm-8.5-17.8c0-5.4-1.9-10.4-5.8-14.7a13.1 13.1 0 00-9.7-3.5c-7.3.4-13.5 5.4-15.5 12.4-.4 1.9-1.2 3.9-1.2 5.8h32.2zM557 43.1h18.6l21.3 64.2h5.8v12.4h-17.4l-5-16.6h-27.1l-5 16.6h-17.8v-12.4h5.8L557 43.1zm9.3 14.3l-10.1 34h20.1l-10-34zM601.9 61.2h23.2v11.2h-5.8l8.1 34.4 9.7-45.6h15.1l9.7 44.9 7.7-33.6h-5.8V61.2H687v11.2h-5l-12.4 46.8h-15.5L644.4 79l-9.3 40.2h-15.5l-12.8-46.8h-5l.1-11.2zM741.8 108.4h5v11.2h-18.2v-7a22.3 22.3 0 01-17.8 8.1c-11.6 0-20.5-7.7-20.5-18.2 0-17 19.3-18.9 37.9-20.5 0-8.9-3.1-11.6-10.4-11.6-7.3 0-10.1 3.5-10.4 8.9v.4l-13.9-.4c.8-11.6 10.1-18.9 24-18.9 16.2 0 24.7 7.3 24.7 20.5l-.4 27.5zm-13.9-16.2c-13.5 1.2-22.4 2.3-22.4 10.4 0 4.6 3.9 7.7 9.7 7.7a13 13 0 0013.1-12.4V92.1h-.4zM774.3 70.5c3.9-7.3 8.1-10.4 14.7-10.4 2.3 0 4.3.4 6.6.8v13.5c-2.3-.4-4.6-.8-7-.8a13 13 0 00-13.9 12V108h7v11.2h-27.1V108h5.8V72.4h-5.8V61.2h19.7v9.3zM853.9 100.3c-2.7 12.8-13.1 20.5-27.1 20.5-16.2 0-28.2-12.8-28.2-30.5s12-30.5 28.2-30.5c8.9 0 17.4 4.3 22.4 12a38.5 38.5 0 015.8 21.7h-41.8c1.5 15.1 11.2 15.9 13.9 15.9 5.4.4 10.4-3.5 12-8.5l14.8-.6zm-15-17c0-6.6-5.4-11.6-11.6-11.6h-.4c-6.6 0-12 5-13.1 11.2l25.1.4zM1002.4 8.6c1.9 0 3.3.5 4.4 1.4 1 .9 1.6 2.2 1.6 3.7 0 1.2-.3 2.2-.8 3.1-.5.9-1.4 1.5-2.6 1.8v.1c.6.1 1 .3 1.4.5l.8.9.5 1.2.2 1.4.1 1.5.1 1.5.3 1.4c.1.4.3.8.6 1.1h-2.9l-.4-.8-.1-1.2-.1-1.4-.2-1.5-.3-1.4-.5-1.1c-.2-.3-.5-.6-.9-.8-.4-.2-.9-.3-1.5-.3h-6.4V28h-2.6V8.6h9.3zm.5 8.9l1.4-.5c.4-.3.7-.6 1-1.1.2-.4.4-1 .4-1.7 0-1-.3-1.8-.8-2.4-.5-.6-1.4-.9-2.7-.9h-6.5v6.8h5.4l1.8-.2z" class="st0"/><path d="M1000.5 38c-10.4 0-18.9-8.5-18.9-18.9S990.1.2 1000.5.2c10.4 0 18.9 8.5 18.9 18.9s-8.5 18.9-18.9 18.9zm0-34.8a15.9 15.9 0 100 31.8 15.9 15.9 0 000-31.8zM862 112h7.2v7.1H862V112zM875.7 98.1c0-12.7 7.8-21.5 19.2-21.5 11.1 0 19.2 9.1 19.2 21.5 0 13-7.9 21.9-19.3 21.9s-19.1-8.9-19.1-21.9zm19 16.7c7.9 0 12.7-6.4 12.7-16.9 0-9.9-5-16.2-12.7-16.2-7.5 0-12.2 6.3-12.2 16.5 0 10.4 4.6 16.6 12.2 16.6zM930.4 86.8c2-4.4 3.1-5.7 5-7.5 2.2-1.9 4.9-2.9 7.6-2.9 1 0 2.4.2 4.5.5V83c-2.1-.4-3.3-.5-4.4-.5-11.3 0-12.7 11.7-12.7 12.4v19.3h7.1v4.9h-19.1v-4.9h6v-32h-6.2v-5h12.2v9.6zM980.3 108.8c-3.8 5.4-8 7.1-12.6 7.1-10 0-16.9-8.2-16.9-20.1 0-11.3 6.8-19.3 16.2-19.3 7.7 0 11.1 4.9 13.3 8.1v-7.5h11.8v5h-5.8v34.3c0 10.1-6.4 15.8-17.8 15.8-6.9 0-12.8-3-15.6-7.9-.5-1-1-2-1.7-4.1h6.8c2.5 5 5.4 6.9 11 6.9 7.1 0 11.3-3.7 11.3-9.7v-8.6zm0-16.2c0-4.6-5.6-11.1-12-11.1-6.8 0-11 5.6-11 14.7 0 9.2 4.3 14.8 11.4 14.8 6.1 0 11.6-6 11.6-10.9v-7.5z" class="st0"/></svg>